<?xml version="1.0" encoding="utf-8"?>
<!-- Generator: Adobe Illustrator 19.0.0, SVG Export Plug-In . SVG Version: 6.00 Build 0)  -->
<svg version="1.1" id="Layer_1" xmlns="http://www.w3.org/2000/svg" xmlns:xlink="http://www.w3.org/1999/xlink" x="0px" y="0px"
   viewBox="0 0 35.9 35.9" style="enable-background:new 0 0 35.9 35.9;" xml:space="preserve">
<style type="text/css">
  .st0{fill:rgba(255,255,255,0.2);}
</style>
<path id="XMLID_13_" class="st0" d="M35.9,17.9c0,3-2.5,5.5-5.5,5.5h-5.8c-0.6,0-1.1,0.5-1.1,1.1v5.8c0,3-2.5,5.5-5.5,5.5
  s-5.5-2.5-5.5-5.5v-5.8c0-0.6-0.5-1.1-1.1-1.1H5.5C2.5,23.5,0,21,0,18c0-3,2.5-5.5,5.5-5.5h5.8c0.6,0,1.1-0.5,1.1-1.1V5.5
  c0-1.5,0.6-2.9,1.6-3.9c1-1,2.4-1.6,3.9-1.6c3,0,5.5,2.5,5.5,5.5v5.8c0,0.6,0.5,1.1,1.1,1.1h5.8c1.5,0,2.9,0.6,3.9,1.6
  C35.3,15.1,35.9,16.4,35.9,17.9z"/>
</svg>
