<?xml version="1.0" encoding="utf-8"?>
<!-- Generator: Adobe Illustrator 19.0.0, SVG Export Plug-In . SVG Version: 6.00 Build 0)  -->
<svg version="1.1" id="Layer_1" xmlns="http://www.w3.org/2000/svg" xmlns:xlink="http://www.w3.org/1999/xlink" x="0px" y="0px"
   viewBox="0 0 184 208.5" style="enable-background:new 0 0 184 208.5;" xml:space="preserve">
<style type="text/css">
  .st0{fill:#FCFBFC;box-shadow: 0 0 40px;}
  .st1{fill:url(#XMLID_41_);}
</style>
<g id="XMLID_275_">
  <path id="XMLID_276_" class="st0" d="M179.2,159.9l-82,47.2c-3,1.7-6.7,1.7-9.8,0L5.1,159.9c-3-1.7-5.1-5-5.1-8.5V57
    c0-3.5,2.1-6.7,5.2-8.5L87.3,1.3c3-1.7,6.8-1.7,9.8,0l82,47.2c3,1.7,4.9,5,4.9,8.5v94.4C184,154.9,182.2,158.2,179.2,159.9z"/>
  <g id="XMLID_277_">
    <linearGradient id="XMLID_41_" gradientUnits="userSpaceOnUse" x1="99.4863" y1="147.8549" x2="99.4863" y2="58.8549">
      <stop  offset="0" style="stop-color:#AE81C5"/>
      <stop  offset="1" style="stop-color:#E6A8DD"/>
    </linearGradient>
    <path id="XMLID_278_" class="st1" d="M133,147.9h-11.8c-2.4,0-4.1-1.1-5.1-2.9l-22-30.9c-0.7-1-1.5-1.9-2.3-2.4
      c-0.8-0.4-2.1-0.8-3.7-0.8H80v37H66v-89h25.9c5.7,0,10.7,0.5,14.8,1.7c4.1,1.2,7.6,2.8,10.3,5s4.7,4.8,6,7.8
      c1.3,3.1,1.9,6.5,1.9,10.3c0,3.1-0.5,6-1.4,8.7c-0.9,2.7-2.3,5.2-4.2,7.3c-1.8,2.2-4.1,4-6.7,5.6c-2.6,1.6-5.6,2.8-9,3.6
      c1.6,1,3.1,2.5,4.3,4.3L133,147.9z M91.5,101.9c3.4,0,6.4-0.6,8.9-1.4c2.6-0.8,4.7-2.1,6.5-3.6c1.7-1.5,3-3.3,3.9-5.4
      c0.9-2.1,1.3-4.4,1.3-6.9c0-5.1-1.7-9.1-5-11.7s-8.4-4-15.1-4H80v33H91.5z"/>
  </g>
</g>
</svg>
